<?xml version="1.0" standalone="no"?>
<!DOCTYPE svg PUBLIC "-//W3C//DTD SVG 20010904//EN"
 "http://www.w3.org/TR/2001/REC-SVG-20010904/DTD/svg10.dtd">
<svg version="1.0" xmlns="http://www.w3.org/2000/svg"
 width="720.000000pt" height="720.000000pt" viewBox="0 0 720.000000 720.000000"
 preserveAspectRatio="xMidYMid meet">
<metadata>
Created by potrace 1.11, written by Peter Selinger 2001-2013
</metadata>
<g transform="translate(0.000000,720.000000) scale(0.100000,-0.100000)"
fill="#000000" stroke="none">
<path d="M1865 6137 c-18 -14 -19 -46 -20 -1263 0 -687 4 -1261 8 -1276 5 -16
14 -28 20 -29 70 -5 288 -3 308 4 19 6 28 16 30 35 2 15 4 516 3 1115 l-1
1087 1391 0 1390 0 -30 -32 c-16 -18 -33 -37 -39 -43 -31 -36 -123 -141 -138
-159 -22 -26 -127 -144 -147 -166 -8 -9 -31 -36 -51 -60 -20 -25 -47 -57 -60
-71 -41 -44 -154 -171 -159 -179 -3 -3 -357 -7 -788 -7 -581 0 -786 -3 -795
-12 -7 -7 -13 -66 -15 -164 -4 -134 -2 -154 13 -167 14 -11 156 -14 892 -14
847 0 876 1 889 19 8 11 38 46 67 79 28 33 61 71 72 85 11 14 29 35 40 47 11
11 36 41 57 65 57 69 76 92 106 124 15 17 47 55 72 85 25 30 59 70 76 90 17
19 40 46 52 60 11 14 30 36 42 50 12 14 38 45 58 69 21 24 48 56 62 71 14 15
40 45 58 68 19 23 44 52 55 65 12 13 40 46 63 73 23 27 87 103 143 169 126
148 127 149 102 174 -20 20 -43 20 -1913 21 -1606 0 -1896 -2 -1913 -13z"/>
<path d="M2793 4450 c-26 -11 -25 -4 -26 -188 0 -90 4 -137 12 -145 9 -9 224
-12 895 -12 793 0 882 -2 872 -15 -39 -54 -102 -136 -106 -140 -4 -3 -42 -52
-86 -110 -43 -58 -84 -110 -89 -116 -6 -6 -37 -47 -70 -90 -33 -43 -63 -81
-66 -84 -4 -3 -30 -36 -60 -75 -29 -38 -57 -74 -61 -80 -5 -5 -22 -28 -39 -50
l-31 -40 -1021 -2 c-562 0 -1030 -1 -1039 -2 -11 -1 -21 -13 -25 -31 -6 -22
-10 -2570 -4 -2648 1 -7 11 -17 24 -21 23 -10 52 4 93 43 11 12 43 39 69 61
89 75 119 100 141 120 12 11 43 38 70 60 27 22 85 72 130 110 44 39 105 90
135 115 29 25 63 54 75 65 12 11 41 36 65 57 24 20 55 46 69 57 14 12 45 38
69 59 24 20 54 46 67 57 12 11 44 38 70 60 26 22 66 56 88 75 22 19 46 40 54
45 7 6 36 31 64 58 l52 47 -1 527 c0 505 -1 527 -19 540 -27 20 -308 17 -325
-3 -9 -11 -12 -129 -12 -454 -1 -242 -3 -440 -6 -440 -3 0 -27 -19 -52 -43
-25 -23 -69 -62 -98 -87 -29 -25 -67 -58 -84 -73 -18 -16 -54 -48 -80 -70 -27
-23 -59 -51 -71 -62 -12 -11 -55 -49 -96 -85 -41 -36 -85 -75 -98 -87 -14 -13
-27 -23 -28 -23 -2 0 -4 357 -4 793 l0 792 930 -3 c764 -3 932 -1 943 10 7 7
62 78 122 157 61 79 115 149 120 155 6 6 40 49 75 96 36 47 67 87 70 90 3 3
34 43 70 90 35 47 68 90 73 95 6 8 119 153 160 205 7 9 34 45 62 80 27 36 53
67 57 68 5 2 8 10 8 17 0 7 3 15 8 17 4 2 23 23 42 48 19 25 40 52 47 60 89
112 222 290 226 305 17 53 83 50 -1210 52 -690 1 -1208 -2 -1220 -7z"/>
</g>
</svg>
