<?xml version="1.0" standalone="no"?>
<!DOCTYPE svg PUBLIC "-//W3C//DTD SVG 20010904//EN"
 "http://www.w3.org/TR/2001/REC-SVG-20010904/DTD/svg10.dtd">
<svg version="1.0" xmlns="http://www.w3.org/2000/svg"
 width="250.000000pt" height="250.000000pt" viewBox="0 0 250.000000 250.000000"
 preserveAspectRatio="xMidYMid meet">
<metadata>
Created by potrace 1.11, written by Peter Selinger 2001-2013
</metadata>
<g transform="translate(0.000000,250.000000) scale(0.100000,-0.100000)"
fill="#000000" stroke="none">
<path d="M1030 2491 c0 -4 -12 -6 -26 -6 -15 1 -49 -2 -78 -7 -28 -5 -69 -11
-91 -14 -53 -7 -66 -9 -90 -17 -11 -3 -31 -8 -45 -11 -45 -8 -55 -11 -62 -21
-5 -6 -8 -5 -8 4 0 10 -3 11 -14 2 -7 -6 -25 -12 -40 -13 -14 -1 -26 -5 -26
-9 0 -4 -12 -9 -28 -12 -34 -7 -51 -12 -77 -22 -11 -4 -35 -14 -54 -21 -18 -8
-37 -11 -42 -8 -5 3 -9 0 -9 -5 0 -6 -9 -11 -20 -11 -11 0 -20 -5 -20 -11 0
-5 -4 -8 -9 -4 -5 3 -15 0 -23 -7 -7 -7 -20 -14 -28 -16 -8 -2 -32 -12 -52
-22 -21 -11 -38 -17 -38 -13 0 3 -9 -2 -20 -12 -11 -10 -20 -15 -20 -11 0 3
-19 -6 -42 -21 -24 -14 -48 -26 -54 -26 -6 0 -11 -6 -11 -13 0 -7 5 -10 11 -7
6 3 5 0 -2 -8 -16 -17 -16 -32 1 -23 9 6 9 4 1 -7 -15 -19 -16 -222 -2 -213 7
5 8 2 3 -5 -11 -20 -12 -71 -1 -71 6 0 5 -4 -3 -9 -9 -6 -10 -11 -2 -15 6 -4
11 -14 11 -22 0 -10 -5 -12 -12 -8 -10 6 -9 3 0 -8 7 -9 14 -35 15 -57 1 -23
4 -41 7 -41 3 0 6 -15 7 -32 2 -48 24 -151 34 -164 5 -6 7 -20 4 -32 -2 -12 0
-22 5 -22 4 0 11 -7 14 -16 4 -10 2 -13 -7 -8 -8 5 -7 2 2 -9 7 -9 11 -26 8
-37 -3 -11 -1 -18 4 -14 8 4 14 -17 10 -38 0 -5 3 -8 7 -8 5 0 9 -6 9 -12 0
-7 8 -30 17 -50 9 -21 13 -38 9 -38 -5 0 -3 -4 2 -8 6 -4 16 -25 24 -47 7 -22
19 -47 27 -55 7 -8 13 -19 14 -25 5 -24 35 -85 43 -85 4 0 5 -4 2 -10 -3 -5
-1 -10 5 -10 6 0 8 -4 5 -10 -3 -5 -1 -10 5 -10 7 0 10 -7 7 -15 -4 -8 -1 -17
5 -21 7 -5 8 -2 3 6 -6 9 -4 11 4 6 7 -5 10 -14 7 -21 -2 -7 2 -16 10 -19 8
-3 14 -12 14 -19 0 -8 7 -20 15 -27 8 -7 13 -15 10 -19 -2 -4 5 -14 16 -21 10
-8 19 -20 19 -27 0 -7 5 -13 10 -13 6 0 10 -6 10 -12 0 -7 13 -27 28 -44 15
-17 41 -48 57 -69 17 -20 60 -68 96 -106 36 -38 63 -71 61 -74 -3 -3 -1 -5 4
-5 6 0 28 -17 51 -38 82 -75 113 -102 118 -102 3 0 20 -13 38 -30 18 -16 38
-30 45 -30 6 0 12 -4 12 -10 0 -5 7 -10 16 -10 8 0 12 -4 9 -10 -3 -5 1 -10 9
-10 9 0 16 -5 16 -11 0 -5 4 -8 9 -5 5 4 11 3 13 -1 4 -11 116 -83 127 -83 5
0 11 -3 13 -7 2 -5 31 -23 66 -41 53 -28 63 -31 68 -17 4 9 13 14 20 11 8 -3
14 -2 14 3 0 4 18 16 40 26 22 10 40 23 40 28 0 6 3 8 6 4 3 -3 28 10 55 29
27 19 53 34 58 34 5 0 11 3 13 8 4 8 74 62 82 62 3 0 20 14 38 30 65 60 78 71
78 66 0 -3 26 21 59 52 32 31 63 59 67 62 5 3 8 8 6 13 -1 4 5 7 15 7 9 0 14
2 11 5 -2 3 16 27 41 53 73 77 135 152 143 173 4 10 11 19 15 19 4 0 26 28 48
63 22 34 45 68 52 75 7 7 13 20 13 28 0 8 5 14 10 14 6 0 10 5 10 10 0 6 11
28 25 50 14 22 22 40 18 40 -5 0 -3 4 2 8 16 12 45 69 38 76 -3 3 -1 6 6 6 7
0 9 5 6 10 -3 6 -1 10 5 10 7 0 10 6 7 14 -3 8 1 17 9 20 8 3 14 9 13 13 -4
25 2 43 13 37 7 -4 8 -3 4 4 -4 7 0 27 9 45 16 35 26 70 28 100 1 9 6 17 12
17 7 0 11 10 10 23 -1 12 2 30 6 39 5 9 10 28 11 42 1 15 6 26 11 26 4 0 6 4
3 8 -4 7 10 91 21 122 3 8 7 41 9 73 1 31 7 63 11 70 10 16 10 38 0 60 -4 10
-4 17 2 17 6 0 8 7 5 15 -4 8 0 23 7 32 8 10 9 14 2 10 -8 -5 -11 2 -11 22 1
19 5 28 12 24 6 -3 5 0 -1 8 -16 16 -17 33 -2 23 8 -5 8 -1 0 14 -13 25 -14
35 -2 28 10 -7 9 20 -2 30 -4 4 -1 14 6 22 9 13 9 14 -1 8 -8 -5 -11 -1 -8 16
2 13 -1 31 -6 42 -7 12 -7 16 0 12 6 -3 8 2 5 13 -5 20 -30 47 -48 53 -5 2 -9
8 -7 13 2 6 1 7 -3 3 -4 -4 -43 11 -86 33 -44 21 -79 36 -79 33 0 -4 -9 1 -20
11 -11 10 -20 15 -20 12 0 -3 -24 5 -54 18 -29 13 -62 25 -72 27 -10 2 -21 6
-24 10 -3 4 -16 9 -28 11 -12 2 -25 6 -28 10 -4 4 -20 7 -36 7 -15 0 -28 5
-28 12 0 6 -3 9 -6 6 -3 -4 -20 -2 -37 3 -18 6 -41 12 -52 14 -69 15 -122 27
-135 32 -8 3 -26 6 -40 7 -14 0 -31 5 -37 9 -8 5 -13 3 -13 -4 0 -9 -3 -9 -14
0 -8 6 -18 11 -22 10 -5 -1 -11 0 -14 1 -3 1 -30 3 -61 4 -30 1 -59 5 -65 8
-13 8 -424 7 -424 -1z m170 -117 c14 0 28 5 33 10 5 8 10 7 16 -2 4 -8 12 -14
16 -14 4 0 12 6 16 14 5 7 9 8 9 3 0 -7 25 -11 63 -10 34 0 74 -3 89 -6 16 -4
30 -3 34 2 4 6 11 6 19 -1 7 -6 36 -12 64 -13 28 -1 51 -5 51 -9 0 -3 9 -4 20
-1 11 3 20 1 20 -3 0 -5 21 -10 46 -11 26 -1 50 -5 53 -10 3 -4 15 -8 26 -7
11 0 34 -5 50 -11 17 -7 38 -11 48 -9 9 1 17 -1 17 -5 0 -4 6 -8 13 -9 25 -2
66 -12 101 -27 20 -8 36 -12 36 -8 0 5 4 2 8 -4 4 -7 17 -14 27 -16 11 -2 31
-9 45 -14 14 -6 27 -10 30 -9 3 0 18 -7 33 -17 15 -9 27 -15 27 -11 0 4 6 1
14 -5 8 -7 24 -14 37 -16 12 -3 25 -9 28 -14 4 -5 19 -14 34 -20 31 -12 51
-51 33 -63 -6 -5 -7 -8 -1 -8 12 0 13 -129 2 -148 -5 -7 -3 -12 4 -12 8 0 8
-4 1 -13 -6 -7 -7 -18 -2 -26 9 -15 2 -44 -9 -37 -3 2 -6 -26 -5 -62 0 -37 -3
-71 -6 -77 -6 -10 -11 -45 -13 -92 -1 -13 -4 -23 -8 -23 -5 0 -6 -9 -4 -20 2
-11 -1 -22 -6 -25 -5 -4 -6 -11 -3 -17 4 -6 2 -13 -4 -17 -6 -4 -13 -22 -15
-41 -2 -19 -8 -44 -14 -55 -6 -11 -11 -22 -11 -25 -1 -14 -16 -66 -22 -75 -3
-5 -12 -29 -20 -52 -7 -24 -18 -43 -23 -43 -6 0 -8 -3 -4 -6 3 -4 -2 -23 -12
-43 -11 -20 -20 -40 -21 -46 -1 -5 -9 -18 -17 -27 -9 -10 -13 -18 -9 -18 4 0
-2 -13 -14 -30 -12 -16 -18 -30 -13 -30 4 0 3 -4 -3 -8 -5 -4 -25 -32 -43 -62
-19 -30 -39 -58 -45 -62 -6 -4 -7 -8 -3 -8 8 0 -2 -13 -35 -51 -10 -10 -18
-22 -18 -27 0 -4 -14 -22 -30 -41 -17 -18 -42 -49 -55 -69 -14 -20 -25 -33
-25 -28 0 5 -10 -4 -22 -20 -34 -44 -123 -129 -256 -247 -18 -15 -35 -27 -39
-27 -3 0 -13 -7 -22 -15 -29 -28 -87 -70 -124 -90 -20 -11 -37 -23 -37 -27 0
-5 -5 -8 -11 -8 -6 0 -24 -9 -40 -21 -16 -11 -37 -18 -45 -15 -8 3 -12 2 -9
-4 3 -6 1 -10 -4 -10 -6 0 -11 5 -11 10 0 6 -5 10 -11 10 -13 0 -121 70 -131
85 -5 6 -8 6 -8 0 0 -7 -3 -7 -8 0 -4 6 -24 21 -44 35 -21 14 -38 28 -38 33 0
4 -7 7 -15 7 -8 0 -15 5 -15 10 0 6 -4 10 -10 10 -5 0 -20 10 -33 22 -13 13
-41 37 -63 55 -69 55 -144 130 -137 137 3 3 -1 6 -10 6 -10 0 -17 3 -17 8 0 4
-17 25 -38 48 -20 22 -50 58 -67 79 -16 21 -38 47 -47 57 -10 10 -16 18 -13
18 3 0 -12 24 -34 53 -21 28 -54 79 -72 112 -18 33 -37 62 -41 63 -4 2 -8 11
-8 21 0 9 -6 23 -12 30 -7 6 -13 15 -13 19 0 4 -12 32 -27 62 -14 30 -36 82
-48 115 -12 33 -26 68 -31 77 -5 10 -9 27 -9 37 0 11 -4 22 -8 25 -4 2 -9 19
-10 37 -2 18 -6 36 -10 39 -4 3 -8 16 -10 30 -1 14 -3 31 -4 38 -1 6 -4 12 -7
12 -3 0 -7 15 -8 33 -3 32 -10 72 -13 72 -2 0 -6 36 -13 112 -2 18 -6 36 -10
39 -11 12 -8 26 4 18 8 -4 8 -1 2 12 -6 11 -9 47 -9 81 1 36 -3 63 -9 63 -6 0
-6 3 1 8 5 4 9 27 8 52 0 25 1 51 3 57 6 14 126 76 149 76 8 0 14 3 14 7 0 4
19 13 43 20 23 8 60 22 82 31 72 30 80 32 93 30 6 -1 12 3 12 9 0 6 4 9 8 6 4
-2 34 4 67 15 32 10 61 17 63 14 3 -3 10 0 17 5 6 5 26 10 43 12 18 1 32 5 32
8 0 4 18 6 41 6 22 -1 43 2 46 7 2 4 9 5 14 2 5 -4 9 -2 9 3 0 5 15 9 33 9 67
2 96 6 91 14 -3 5 6 5 19 0 14 -6 27 -7 30 -5 3 3 26 7 51 8 25 1 48 5 52 9 4
3 12 3 18 -1 6 -4 22 -7 36 -8z"/>
<path d="M1996 2159 c-10 -10 -48 -32 -85 -49 -36 -17 -73 -34 -81 -38 -8 -4
-36 -7 -62 -7 -25 0 -44 -3 -41 -7 2 -5 -1 -8 -6 -8 -6 0 -11 3 -11 8 0 4 -21
7 -47 7 -27 -1 -66 3 -88 8 -22 4 -59 9 -82 9 -23 1 -40 5 -38 9 3 4 -2 9 -10
13 -8 3 -15 1 -15 -5 0 -6 -9 -5 -22 2 -13 7 -24 12 -25 11 -9 -6 -53 -1 -50
6 3 4 -9 8 -26 8 -54 3 -110 14 -124 25 -10 9 -13 8 -13 -2 0 -9 -3 -10 -8 -4
-9 13 -247 8 -247 -5 0 -1 -11 -4 -25 -6 -13 -2 -27 -9 -31 -15 -3 -6 -9 -10
-13 -10 -16 3 -56 -12 -56 -21 0 -5 -5 -6 -10 -3 -6 3 -10 1 -10 -5 0 -6 -8
-14 -17 -17 -15 -6 -46 -35 -128 -124 -8 -9 -15 -21 -15 -27 0 -7 -5 -12 -11
-12 -5 0 -7 -4 -4 -10 3 -5 1 -10 -5 -10 -6 0 -8 -4 -5 -10 3 -5 1 -10 -6 -10
-7 0 -9 -3 -6 -6 3 -4 1 -16 -5 -28 -7 -11 -13 -27 -15 -33 -10 -41 -12 -48
-13 -48 -1 0 -3 -13 -3 -30 -1 -16 -6 -36 -11 -44 -6 -9 -5 -12 1 -8 6 4 9 -8
7 -32 -2 -27 2 -38 12 -38 8 0 14 5 14 10 0 6 3 7 6 4 4 -4 19 2 33 12 14 10
29 20 33 21 4 1 17 4 28 7 11 3 20 10 20 15 0 5 4 7 8 4 5 -3 19 1 33 8 13 7
30 11 37 8 6 -2 12 0 12 5 0 9 20 13 73 16 15 1 27 5 27 8 0 3 38 6 85 6 47 0
82 -3 78 -6 -18 -13 -83 -138 -76 -145 4 -3 1 -6 -5 -6 -7 0 -12 -9 -12 -21 0
-13 -4 -18 -12 -13 -7 4 -8 3 -4 -5 9 -14 -2 -53 -13 -46 -5 2 -7 -9 -6 -25 1
-17 -1 -30 -5 -30 -3 0 -7 -6 -8 -12 -6 -63 -11 -98 -16 -107 -4 -5 -3 -12 2
-15 4 -2 8 -34 7 -70 0 -38 3 -62 9 -59 5 4 7 -1 3 -9 -3 -9 -3 -19 0 -22 4
-3 8 -20 10 -38 2 -18 7 -34 12 -37 4 -4 7 -14 5 -23 -1 -10 2 -18 7 -18 6 0
7 -4 4 -10 -3 -5 -1 -10 5 -10 6 0 9 -4 5 -9 -3 -5 -1 -12 5 -16 6 -4 8 -11 5
-16 -4 -5 -3 -15 2 -21 15 -26 23 -168 8 -168 -5 0 -3 -5 5 -10 8 -5 10 -10 3
-10 -6 0 -10 -11 -8 -25 1 -14 -2 -25 -6 -25 -5 0 -9 -6 -9 -14 0 -19 -36 -97
-42 -91 -2 3 -5 -1 -6 -7 0 -7 -2 -22 -4 -33 -3 -19 2 -20 67 -18 89 3 97 4
113 16 6 5 12 7 12 3 0 -4 13 0 29 8 16 9 31 12 35 9 3 -4 6 -1 6 6 0 7 5 9
10 6 6 -3 13 1 16 9 3 9 10 13 15 10 5 -3 12 2 15 10 3 9 10 13 15 10 5 -3 12
2 15 10 3 9 13 16 20 16 8 0 17 7 20 15 3 8 15 17 26 21 11 3 17 8 14 11 -2 3
5 15 18 27 27 26 89 126 82 133 -3 3 1 17 8 32 7 14 12 41 11 59 0 17 2 32 6
32 3 0 4 12 2 27 -2 16 -5 46 -7 69 -1 22 -6 46 -9 51 -6 9 9 21 36 28 4 2 8
4 10 5 7 7 87 5 87 -2 0 -5 4 -6 10 -3 5 3 22 -1 38 -9 28 -15 30 -14 42 12 7
15 16 35 21 44 5 10 9 25 9 33 0 8 5 15 10 15 6 0 10 8 10 18 0 10 7 28 16 40
8 12 13 22 9 22 -3 0 2 15 12 33 9 17 17 35 18 39 0 3 3 9 6 13 4 3 5 14 2 24
-4 17 -26 22 -85 22 -10 0 -18 6 -18 12 0 8 -3 8 -8 2 -9 -13 -42 -16 -42 -3
0 5 -5 6 -11 2 -6 -3 -27 -8 -47 -10 -21 -2 -48 -6 -62 -10 -14 -4 -27 -8 -30
-8 -34 -8 -100 -32 -100 -36 0 -3 -9 -6 -19 -7 -21 -2 -35 22 -24 39 4 7 1 8
-7 3 -10 -6 -12 -1 -8 19 3 14 1 26 -5 26 -5 0 -5 6 2 13 6 8 8 17 5 20 -4 3
-3 14 1 24 4 10 8 35 10 55 1 20 7 43 13 51 7 8 9 17 5 20 -7 7 21 12 47 8 47
-7 228 -6 243 1 12 6 17 5 17 -4 0 -10 2 -10 8 -1 5 7 21 14 38 15 16 1 31 6
34 10 3 4 15 9 25 11 35 7 102 43 133 70 10 10 25 17 32 17 7 0 11 2 8 5 -3 3
12 23 34 45 21 23 38 47 38 55 0 8 4 15 8 15 5 0 9 6 10 13 1 19 7 41 13 52 3
6 7 28 8 50 1 21 4 41 6 44 3 2 0 10 -6 18 -9 10 -8 13 1 13 9 0 9 4 2 13 -5
6 -8 22 -6 34 5 28 -16 35 -40 12z"/>
</g>
</svg>
