<?xml version="1.0" standalone="no"?>
<!DOCTYPE svg PUBLIC "-//W3C//DTD SVG 20010904//EN"
 "http://www.w3.org/TR/2001/REC-SVG-20010904/DTD/svg10.dtd">
<svg version="1.0" xmlns="http://www.w3.org/2000/svg"
 width="200.000000pt" height="200.000000pt" viewBox="0 0 200.000000 200.000000"
 preserveAspectRatio="xMidYMid meet">
<metadata>
Created by potrace 1.11, written by Peter Selinger 2001-2013
</metadata>
<g transform="translate(0.000000,200.000000) scale(0.100000,-0.100000)"
fill="#000000" stroke="none">
<path d="M917 1704 c-1 -1 -24 -5 -52 -8 -119 -13 -254 -47 -344 -87 -204 -91
-189 -74 -186 -221 1 -68 6 -141 9 -163 4 -22 9 -49 11 -60 2 -11 4 -20 5 -20
1 0 4 -13 6 -30 3 -16 12 -50 21 -75 9 -25 17 -52 18 -60 1 -8 16 -46 33 -84
18 -38 32 -70 32 -72 0 -11 85 -144 92 -144 4 0 8 -7 8 -15 0 -8 11 -25 25
-37 13 -11 22 -25 19 -30 -3 -4 2 -8 10 -8 9 0 16 -4 16 -9 0 -9 117 -131 126
-131 3 0 19 -14 37 -30 18 -17 40 -33 50 -36 9 -3 17 -9 17 -14 0 -5 12 -15
28 -23 15 -7 43 -24 63 -35 l36 -22 94 62 c171 113 345 309 438 496 36 71 87
218 95 276 4 21 8 41 10 45 9 13 19 138 20 239 1 119 5 113 -99 165 -102 51
-248 98 -350 113 -94 14 -280 25 -288 18z m233 -89 c25 -4 56 -9 70 -12 14 -2
33 -5 43 -6 9 -1 17 -5 17 -10 0 -4 4 -6 9 -2 5 3 38 -5 73 -18 35 -14 65 -25
68 -25 3 0 19 -6 35 -12 17 -6 32 -11 34 -10 2 1 7 -2 10 -7 3 -4 19 -15 35
-23 30 -15 53 -65 35 -76 -6 -4 -6 -10 0 -18 6 -7 9 -15 6 -18 -2 -2 -7 -40
-11 -84 -8 -98 -10 -115 -17 -134 -3 -8 -11 -38 -17 -67 -57 -255 -286 -564
-516 -698 l-31 -18 -49 33 c-252 170 -423 412 -498 706 -22 88 -26 118 -33
244 l-6 115 69 32 c84 39 174 74 174 68 0 -2 16 3 36 11 20 8 38 13 41 10 3
-2 17 0 32 6 14 5 48 11 74 13 26 1 50 5 52 7 7 7 216 2 265 -7z"/>
<path d="M1344 1485 c-77 -41 -111 -40 -334 11 -14 3 -59 7 -100 9 -63 4 -84
1 -125 -19 -91 -42 -159 -135 -171 -235 -8 -69 -1 -76 49 -48 23 13 62 29 87
36 47 12 120 21 120 13 0 -2 -13 -32 -30 -66 -49 -103 -57 -239 -20 -321 31
-68 31 -162 0 -232 -13 -30 -15 -45 -8 -49 16 -10 68 -11 68 -1 0 5 4 6 9 3
14 -9 91 35 136 79 60 57 80 105 80 192 -1 80 8 89 67 72 17 -4 34 -7 38 -4 6
4 52 118 65 163 5 19 2 22 -22 24 -66 3 -121 -2 -162 -17 -24 -8 -46 -13 -48
-11 -9 9 -10 82 -2 112 l9 31 72 -2 c171 -5 284 79 295 218 3 35 2 66 -3 69
-5 3 -36 -10 -70 -27z"/>
</g>
</svg>
